# 3ds Max Wavefront OBJ Exporter v0.99 - (c)2007 guruware
# File Created: 26.01.2022 19:07:06

mtllib Cereal_Box_UVs.mtl

#
# object Box001
#

v  -7.5957 0.0000 18.6241
v  -7.5957 0.0000 -18.6241
v  7.5957 0.0000 -18.6241
v  7.5957 0.0000 18.6241
v  -7.5957 46.5603 18.6241
v  7.5957 46.5603 18.6241
v  7.5957 46.5603 -18.6241
v  -7.5957 46.5603 -18.6241
# 8 vertices

vn 0.0000 -1.0000 -0.0000
vn 0.0000 1.0000 -0.0000
vn 0.0000 0.0000 1.0000
vn 1.0000 0.0000 -0.0000
vn 0.0000 0.0000 -1.0000
vn -1.0000 0.0000 -0.0000
# 6 vertex normals

vt 0.4383 0.7744 0.0000
vt 0.0008 0.7750 0.0000
vt 0.0005 0.5562 0.0000
vt 0.4380 0.5556 0.0000
vt 0.4381 0.7808 0.0000
vt 0.4380 0.9995 0.0000
vt 0.0005 0.9993 0.0000
vt 0.0006 0.7805 0.0000
vt 0.9972 0.4408 0.0000
vt 0.9976 0.6595 0.0000
vt 0.4508 0.6606 0.0000
vt 0.4503 0.4419 0.0000
vt 0.4380 0.5534 0.0000
vt 0.0005 0.5521 0.0000
vt 0.0021 0.0053 0.0000
vt 0.4396 0.0066 0.0000
vt 0.4503 0.8844 0.0000
vt 0.4507 0.6657 0.0000
vt 0.9975 0.6666 0.0000
vt 0.9972 0.8853 0.0000
vt 0.4408 0.4380 0.0000
vt 0.4421 0.0005 0.0000
vt 0.9889 0.0021 0.0000
vt 0.9876 0.4396 0.0000
# 24 texture coords

o Box001
g Box001
usemtl wire_028089177
s off
f 1/1/1 2/2/1 3/3/1 4/4/1 
f 5/5/2 6/6/2 7/7/2 8/8/2 
f 1/9/3 4/10/3 6/11/3 5/12/3 
f 4/13/4 3/14/4 7/15/4 6/16/4 
f 3/17/5 2/18/5 8/19/5 7/20/5 
f 2/21/6 1/22/6 5/23/6 8/24/6 
# 6 polygons

